<?xml version="1.0" encoding="UTF-8" standalone="no"?>
<!-- Created with Inkscape (http://www.inkscape.org/) -->

<svg
   xmlns:dc="http://purl.org/dc/elements/1.1/"
   xmlns:cc="http://creativecommons.org/ns#"
   xmlns:rdf="http://www.w3.org/1999/02/22-rdf-syntax-ns#"
   xmlns:svg="http://www.w3.org/2000/svg"
   xmlns="http://www.w3.org/2000/svg"
   xmlns:sodipodi="http://sodipodi.sourceforge.net/DTD/sodipodi-0.dtd"
   xmlns:inkscape="http://www.inkscape.org/namespaces/inkscape"
   width="56.995686mm"
   height="33.665688mm"
   viewBox="0 0 56.995686 33.665688"
   version="1.1"
   id="svg4614"
   inkscape:version="0.92.3 (unknown)"
   sodipodi:docname="Logo_blue.svg">
  <defs
     id="defs4608" />
  <sodipodi:namedview
     id="base"
     pagecolor="#ffffff"
     bordercolor="#666666"
     borderopacity="1.0"
     inkscape:pageopacity="0.0"
     inkscape:pageshadow="2"
     inkscape:zoom="2.8"
     inkscape:cx="100.90691"
     inkscape:cy="71.684332"
     inkscape:document-units="mm"
     inkscape:current-layer="layer1"
     showgrid="false"
     scale-x="0.8"
     fit-margin-top="0"
     fit-margin-left="0"
     fit-margin-right="0"
     fit-margin-bottom="0"
     inkscape:window-width="1366"
     inkscape:window-height="711"
     inkscape:window-x="0"
     inkscape:window-y="28"
     inkscape:window-maximized="1" />
  <metadata
     id="metadata4611">
    <rdf:RDF>
      <cc:Work
         rdf:about="">
        <dc:format>image/svg+xml</dc:format>
        <dc:type
           rdf:resource="http://purl.org/dc/dcmitype/StillImage" />
        <dc:title></dc:title>
      </cc:Work>
    </rdf:RDF>
  </metadata>
  <g
     inkscape:label="Layer 1"
     inkscape:groupmode="layer"
     id="layer1"
     transform="translate(-19.883108,-14.071919)">
    <path
       style="display:inline;fill:#008bd2;fill-opacity:1;stroke-width:0.32000002"
       d="M 30.714844 0 L 23.205078 41.767578 L 15.697266 0.01171875 L 0 0.005859375 L 12.248047 55.255859 L 34.001953 55.251953 L 46.212891 0.0078125 L 30.714844 0 z M 78.828125 0.013671875 L 78.828125 55.255859 L 94.763672 55.255859 L 94.763672 0.013671875 L 78.828125 0.013671875 z M 104.16016 0.013671875 L 104.22266 38.615234 C 104.22266 50.88044 112.88343 56.617188 125.38477 56.617188 C 138.60449 56.617188 146.4668 50.062301 146.4668 38.615234 C 146.5222 26.105474 146.57501 12.516432 146.62891 0.013671875 L 131.89648 0.013671875 C 131.75056 12.772654 131.89453 22.243093 131.89453 35.421875 C 131.89453 45.493488 118.74219 45.230121 118.74219 35.632812 C 118.74219 23.595543 118.74414 0.013671875 118.74414 0.013671875 L 104.16016 0.013671875 z M 211.25586 67.535156 L 211.25586 87.900391 L 215.41602 87.900391 L 215.41602 67.535156 L 211.25586 67.535156 z M 86.109375 68.142578 L 81.980469 68.146484 L 81.949219 88.042969 L 86.146484 88.044922 L 86.136719 82.677734 L 86.121094 77.130859 L 86.109375 68.142578 z M 86.121094 77.130859 L 91.048828 88.203125 L 95.658203 87.904297 L 90.255859 77.128906 L 95.296875 68.175781 L 90.705078 68.175781 L 86.121094 77.130859 z M 129.44922 72.548828 C 127.84247 72.574151 126.09012 73.322744 124.85156 74.634766 C 124.34329 72.102713 120.37201 71.832165 117.0293 74.224609 C 116.81772 73.863589 116.44727 72.970703 116.44727 72.970703 L 113.23828 73.019531 L 113.23828 87.908203 L 117.0293 87.908203 C 117.0293 87.908203 117.12541 80.504355 117.17969 76.984375 C 118.15078 76.146185 121.28545 75.119624 121.42578 77.117188 L 121.42578 87.908203 L 125.34961 87.908203 L 125.34961 76.984375 C 126.39372 75.966499 129.31065 75.085291 129.46289 77.117188 L 129.49609 87.908203 L 133.48047 87.908203 C 133.48047 87.908203 133.46685 80.220859 133.53125 76.380859 C 133.34205 73.681011 131.51506 72.51632 129.44922 72.548828 z M 154.02734 72.548828 C 152.42059 72.574151 150.6702 73.322744 149.43164 74.634766 C 148.92337 72.102713 144.95014 71.832165 141.60742 74.224609 C 141.39584 73.863589 141.02539 72.970703 141.02539 72.970703 L 137.81836 73.019531 L 137.81836 87.908203 L 141.60938 87.908203 C 141.60938 87.908203 141.70358 80.504374 141.75781 76.984375 C 142.7289 76.146212 145.86358 75.119613 146.00391 77.117188 L 146.00391 87.908203 L 149.82812 87.908203 L 149.82812 76.984375 C 150.87222 75.966499 153.89073 75.085291 154.04297 77.117188 L 154.07422 87.908203 L 158.05859 87.908203 C 158.05859 87.908203 158.04497 80.220859 158.10938 76.380859 C 157.92017 73.681011 156.09317 72.51632 154.02734 72.548828 z M 201.75977 72.564453 C 200.00278 72.589776 198.07104 72.965048 196.38867 73.460938 L 196.38867 76.654297 C 197.77139 76.299815 203.24023 74.741419 203.24023 77.15625 L 203.24023 78.515625 C 198.55218 78.424123 195.03906 78.585924 195.03906 83.953125 C 195.03906 88.253974 199.65411 89.48265 203.36133 86.662109 C 203.55 87.13226 203.6638 87.420617 203.88477 87.984375 C 204.97486 87.940986 205.90728 87.944271 207.12891 87.900391 C 207.18511 83.565333 207.13086 81.381503 207.13086 76.439453 C 207.13086 73.455924 204.68808 72.522542 201.75977 72.564453 z M 103.00586 72.601562 C 97.352162 72.601562 96.136392 76.657869 96.066406 80.050781 C 95.993121 83.604539 97.297717 88.144531 103.00781 88.144531 C 108.96242 88.144531 109.88912 83.575848 109.81641 80.050781 C 109.74701 76.68716 108.65956 72.601562 103.00586 72.601562 z M 187.46094 72.705078 C 185.98621 72.772505 184.35211 73.316947 182.88477 74.203125 C 182.67319 73.842105 182.30273 72.949219 182.30273 72.949219 L 179.09375 72.998047 L 179.09375 87.886719 L 182.88477 87.886719 C 182.88477 87.886719 182.82861 80.482893 182.88281 76.962891 C 183.8539 76.124724 187.90067 75.098125 188.04102 77.095703 L 188.04102 87.886719 L 191.9668 87.886719 L 191.9668 76.962891 C 191.93051 73.803735 189.91882 72.592705 187.46094 72.705078 z M 162.2832 72.951172 L 162.2832 83.875 C 162.34152 88.929653 166.89569 88.997915 170.80859 86.634766 C 171.02017 86.995786 171.38867 87.888672 171.38867 87.888672 L 174.59766 87.839844 L 174.59766 72.951172 L 170.80664 72.951172 C 170.80664 72.951172 170.8628 80.355001 170.80859 83.875 C 169.83752 84.713163 166.34931 85.739762 166.20898 83.742188 L 166.20898 72.951172 L 162.2832 72.951172 z M 103.00781 75.488281 C 105.96157 75.488281 105.80078 78.604265 105.80078 80.515625 C 105.80078 82.426985 105.96077 85.179688 103.15039 85.179688 C 100.34 85.179699 100.18164 82.594913 100.18164 80.515625 C 100.18164 78.436344 100.05404 75.488281 103.00781 75.488281 z M 203.24023 80.722656 L 203.24023 84.490234 C 201.41325 85.538203 198.9707 85.627469 198.9707 83.236328 C 198.9707 80.674047 201.30492 80.722656 203.24023 80.722656 z M 100.75977 100.05859 C 99.465909 100.05813 98.416628 101.10654 98.416016 102.40039 C 98.415547 103.695 99.465149 104.74461 100.75977 104.74414 C 102.05362 104.74353 103.10203 103.69424 103.10156 102.40039 C 103.10095 101.1073 102.05286 100.05921 100.75977 100.05859 z M 124.99219 100.05859 C 123.69834 100.05813 122.64905 101.10654 122.64844 102.40039 C 122.64797 103.695 123.69758 104.74461 124.99219 104.74414 C 126.28604 104.74353 127.33446 103.69424 127.33398 102.40039 C 127.33338 101.1073 126.28528 100.05921 124.99219 100.05859 z M 156.93164 101.30469 L 156.93164 121.66992 L 161.0918 121.66992 L 161.0918 101.30469 L 156.93164 101.30469 z M 85.166016 101.73633 C 84.141749 101.73533 83.032855 101.7704 81.832031 101.83008 L 81.976562 121.65039 C 88.778068 121.65039 95.273438 122.64593 95.273438 111.91992 C 95.273438 103.58484 92.335821 101.74624 85.166016 101.73633 z M 135.71094 102.25195 L 132.17383 103.54102 L 131.96875 106.61133 L 129.41602 106.64062 L 129.41016 109.33984 L 131.92773 109.3457 L 131.92773 118.60938 C 131.92773 121.69038 134.79228 122.75171 139.54102 121.22266 L 139.54102 118.22656 C 138.0624 118.58165 135.73633 119.42245 135.73633 118.0625 C 135.74049 115.01904 135.79492 109.37109 135.79492 109.37109 L 138.73438 109.33984 L 139.36719 106.53125 L 135.79492 106.63477 L 135.71094 102.25195 z M 86.847656 104.85352 C 90.894173 104.8541 91.443359 107.62151 91.443359 111.69531 C 91.443359 115.65183 91.188734 118.76031 85.962891 118.60547 C 85.962891 115.76135 85.992188 109.27066 85.992188 104.89062 C 86.293907 104.86568 86.577885 104.85352 86.847656 104.85352 z M 147.44141 106.36328 C 145.68441 106.38823 143.75268 106.76583 142.07031 107.26172 L 142.07031 110.45312 C 143.45303 110.09864 148.92188 108.54024 148.92188 110.95508 L 148.92188 112.31445 C 144.23382 112.22295 140.7207 112.38475 140.7207 117.75195 L 140.71875 117.75195 C 140.71875 122.0528 145.33575 123.28342 149.04297 120.46289 C 149.23164 120.93304 149.34544 121.2214 149.56641 121.78516 C 150.65651 121.74177 151.58892 121.74302 152.81055 121.69922 C 152.86716 117.36416 152.8125 115.18031 152.8125 110.23828 C 152.8125 107.25475 150.36972 106.32138 147.44141 106.36328 z M 112.47461 106.42773 C 110.27914 106.42773 106.74023 107.44707 106.74023 111.41406 C 106.74023 113.67307 107.34135 114.48232 108.64258 115.62305 C 106.65874 116.38177 105.79731 119.20734 107.77734 120.43555 C 105.46758 122.46064 105.68238 125.19429 107.95898 126.43359 C 109.69928 127.31802 114.45027 127.61805 117.66797 126.59375 C 120.85469 125.4576 121.19967 119.22911 117.38672 118.65234 C 115.7541 118.40539 112.76572 118.41801 110.46289 118.15625 C 109.48165 118.04468 109.49192 117.11578 110.0918 116.4375 C 110.77641 116.62058 111.70952 116.68988 112.47656 116.6875 C 116.13325 116.6875 118.73633 115.58903 118.73633 111.74805 C 118.73633 110.77698 118.37893 109.86048 118.02734 109.41797 L 120.29883 109.41797 L 120.30078 106.63867 C 120.30078 106.63867 117.20441 106.71484 115.65234 106.71484 C 114.47998 106.45296 113.62048 106.42773 112.47461 106.42773 z M 98.814453 106.82812 L 98.814453 121.55273 L 102.85938 121.55273 L 102.85938 106.82812 L 98.814453 106.82812 z M 123.04883 106.82812 L 123.04883 121.55273 L 127.0918 121.55273 L 127.0918 106.82812 L 123.04883 106.82812 z M 112.72461 108.86719 C 114.17742 108.86719 115.10156 109.64048 115.10156 111.58594 C 115.10156 113.57542 114.14462 114.3418 112.77148 114.3418 C 111.37711 114.3418 110.39453 113.56575 110.39453 111.47656 C 110.39453 109.7732 111.18596 108.86719 112.72461 108.86719 z M 148.92188 114.52344 L 148.92188 118.29102 C 147.0949 119.33898 144.65234 119.42825 144.65234 117.03711 C 144.65233 114.47483 146.98658 114.52344 148.92188 114.52344 z M 110.06641 121.23828 C 112.82269 121.71309 116.39648 120.8244 116.39648 122.73633 C 116.39648 124.00542 115.80455 124.64258 112.83594 124.64258 C 110.01996 124.64258 109.06919 123.91384 110.06641 121.23828 z "
       transform="matrix(0.26458333,0,0,0.26458333,19.883108,14.071919)"
       id="path952" />
    <path
       sodipodi:nodetypes="cccccccc"
       inkscape:connector-curvature="0"
       id="path4595"
       d="m 37.972751,14.078288 -4.534702,-0.0059 -1.4e-5,-10e-7 3.200435,6.721748 -3.47399,7.884848 4.560128,0.175201 3.013584,-7.903121 z"
       style="display:inline;fill:#e53012;fill-opacity:1;stroke-width:0.08466667" />
  </g>
</svg>
